<?xml version="1.0" encoding="UTF-8"?>
<!-- Created with Inkscape (http://www.inkscape.org/) -->
<svg width="120.14mm" height="168.97mm" version="1.1" viewBox="0 0 120.14 168.97" xml:space="preserve" xmlns="http://www.w3.org/2000/svg"><g transform="translate(-64.336 -66.653)"><g fill="#4e4e43"><path d="m67.275 206.67v0.26458h-0.79375l0.79375-0.26458"/><path d="m69.921 206.41-0.26458 0.26459 0.26458-0.26459"/><path d="m64.893 206.41v0.79375h-0.26456l0.26458-0.79375"/><path d="m70.185 205.88-0.26458 0.26458 0.26458-0.26458"/><path d="m67.539 205.61-0.52917 0.79375v-0.79375h0.52917"/><path d="m69.656 204.91 0.08819 0.0884c-0.13057 0.0434-0.29281-0.0884-0.08819-0.0884"/><path d="m65.158 203.5-0.26458 0.26458 0.26458-0.26458"/><path d="m67.275 203.23-0.52917 0.52917 0.52917-0.52917"/><path d="m71.508 202.97-0.26458 0.26458 0.26458-0.26458"/><path d="m66.746 202.97-0.26458 0.26458 0.26458-0.26458"/><path d="m69.391 202.44-0.26458 0.26459 0.26458-0.26459"/><path d="m67.539 202.17-0.26458 0.26458 0.26458-0.26458"/><path d="m73.096 201.38-0.26458 0.26459 0.26458-0.26459"/><path d="m67.275 200.85-0.26458 0.26458 0.26458-0.26458"/><path d="m73.625 200.59-0.26458 0.26459 0.26458-0.26459"/><path d="m70.714 200.59-0.26458 0.26459 0.26458-0.26459"/><path d="m64.893 200.59-0.26458 0.26459 0.26458-0.26459"/><path d="m71.508 200.06-0.26458 0.26458 0.26458-0.26458"/><path d="m69.921 199-0.26458 0.26459 0.26458-0.26459"/><path d="m67.275 199-0.26458 0.26459 0.26458-0.26459"/><path d="m154.59 192.91-0.26458 0.26458 0.26458-0.26458"/><path d="m69.391 179.68-0.26458 0.26458 0.26458-0.26458"/><path d="m150.62 179.16-0.26458 0.26459 0.26458-0.26459"/><path d="m150.35 178.63-0.26459 0.26458 0.26459-0.26458"/><path d="m68.068 178.63-0.26458 0.26458 0.26458-0.26458"/><path d="m70.362 177.74-0.08821 0.17621 0.08821-0.17621"/><path d="m71.773 176.77-0.26458 0.26459 0.26458-0.26459"/><path d="m67.539 176.77v0.52917l-0.52917-0.52917h0.52917"/><path d="m66.746 176.25-0.26458 0.26458 0.26458-0.26458"/><path d="m70.185 175.45-0.26458 0.26458 0.26458-0.26458"/><path d="m72.831 175.19 0.26458 0.52917-0.26458-0.52917"/><path d="m70.714 175.19-0.26458 0.26459 0.26458-0.26459"/><path d="m69.127 173.86-0.52917 0.52916 0.52917-0.52916"/><path d="m75.212 173.07-0.52917 0.52916 0.52917-0.52916"/><path d="m72.566 173.07-0.26458 0.26458 0.26458-0.26458"/><path d="m77.064 171.31c0.20463 0 0.0424 0.13176-0.0882 0.0884l0.0882-0.0884"/><path d="m77.064 168.31-0.26459 0.26458 0.26459-0.26458"/></g><g><path d="m157.76 199.79h0.26458c0.9697-7.6737 0.26459-15.811 0.26459-23.548 0-8.2828 0.68236-16.881 0.12858-25.125-0.16457-2.4516-6.1317-4.5-5.4533-6.9652 0.26776-0.9726 1.17-1.9857 1.705-2.8347 1.2515-1.9868 2.4858-6.3579 4.6821-7.3906 4.1997-1.974 11.6 5.5531 14.692-0.54795 0.92922-1.8333-0.67971-3.8343 0.17224-5.5449 1.0956-2.2003 3.2234-2.1987 1.8008-5.0374 3.5417-1.5634 0.20082-3.1724 1.3409-5.5446 1.1216-2.3336 4.9652-0.83556 5.8669-3.2012 0.50323-1.32-0.5969-2.8715-1.2282-3.9542-1.4256-2.4456-3.293-5.2242-4.1315-7.9375-0.48709-1.5751 1.047-3.32 1.0623-5.0271-2.0701 0.41196-3.9306 2.1577-5.8208 3.1094-4.0958 2.0624-8.255 3.9264-12.435 5.8055-1.7558 0.78952-5.1123 1.1954-6.3915 2.6339-1.1613 1.306-1.6153 3.8031-2.4053 5.3845-1.6499 3.3017-3.6468 6.4005-5.6028 9.525-1.6656 2.6601-3.3073 5.3644-5.1054 7.9375-0.83 1.188-2.3244 2.6953-2.3432 4.2333-0.0251 2.0354 1.4494 4.6831 2.0926 6.6146 1.5166 4.5537 2.8541 9.1586 4.219 13.758 4.2894 14.454 7.2289 29.556 12.626 43.656" fill="#fec580"/><path d="m129.24 212.84c-2.7e-4 -12.531-0.13561-32.205-0.30058-43.72l-0.29995-20.936 3.4234-2.9238c1.8829-1.6081 3.6253-2.8372 3.872-2.7314 0.24677 0.1058 1.4694 2.6622 2.717 5.6808l2.2683 5.4884-0.24456 37.7-0.24457 37.7-5.3597 3.263c-2.9479 1.7946-5.4657 3.263-5.5952 3.263s-0.23577-10.253-0.23611-22.783zm-15.543-49.727 11.386-7.0957-0.49505 65.347-11.881-8.0858zm49.09-4.8642c0 7.6166 0.42043 15.313-0.0103 22.922-0.23944 4.2258-0.12409 8.4537-0.25823 12.689-0.0646 2.0409-0.499 4.0869-0.21458 6.1398 0.74163 5.3566 3.4221 10.995 5.3224 16.168 1.9735 5.3727 3.4565 11.091 6.5378 16.168h0.26459c0-15.965-0.26459-31.916-0.26459-47.891v-9.8237c0-1.2206 0.47599-2.9334 0.0916-4.0932-0.40745-1.2298-2.2064-2.4528-3.1552-3.4792-2.4924-2.6968-4.8739-6.8248-8.3135-8.8004" fill="#0BC5EA" stroke-width="19.455"/><path d="m148.77 111.16c-1.2144 0.74321-2.7871 1.3171-3.8288 2.2852-0.99404 0.92419-1.4568 2.4043-2.1759 3.5356-1.5616 2.4561-3.2983 4.8421-5.0782 7.1438-4.8591 6.2836-10.435 11.996-15.915 17.727-11.566 12.096-24.444 23.054-37.296 33.752-4.6387 3.8608-9.1734 7.8028-13.494 12.017-2.1301 2.078-4.826 4.3706-6.0885 7.1477-0.73792 1.6232-0.52542 4.5664-0.5261 6.35v13.229c4.1453-1.933 7.3429-7.1395 10.177-10.583 3.4329-4.1717 7.459-7.8489 11.031-11.906 15.857-18.013 32.601-35.404 46.86-54.769 4.467-6.0661 8.7003-12.203 12.804-18.521 1.0991-1.6923 4.1016-5.3253 3.5303-7.4083" fill="#291356" style="paint-order:markers stroke fill"/><path d="m162.79 100.84c5.5486-2.1521 10.805-4.2484 15.875-7.4216 3.4642-2.1683 6.5609-4.4672 5.6496-9.2472-0.32782-1.719-1.9016-3.2578-2.7392-4.7625-2.1998 0.68633-4.0111 5.0146-5.2983 6.8792-3.8513 5.5769-9.3263 9.3924-13.487 14.552" fill="#291356" style="paint-order:markers stroke fill"/><path d="m175.06 71.489c-1.4158 0.80036-2.427 4.3815-3.2443 5.802-2.123 3.6901-5.0123 7.0168-7.9753 10.054-10.77 11.041-23.901 20.059-38.361 25.512-2.1066 0.79428-6.4037 1.0885-8.0415 2.5305-0.78475 0.69109-0.2249 3.1562 0.70697 3.5372 1.0189 0.41672 2.8689-0.28972 3.8949-0.53207 3.5502-0.839 7.1382-1.8971 10.583-3.093 15.821-5.4925 30.538-17.039 40.515-30.336 1.9095-2.545 6.3447-6.8178 6.7128-10.054 0.18177-1.6002-3.3044-4.2614-4.7911-3.4211" fill="#008080" style="paint-order:markers stroke fill"/><path d="m116.37 88.557 7.0132-12.243 10.579-7.4887 13.551-2.1396 12.125 3.2094-20.921 12.125-16.998 6.0623z" fill="#291356" style="paint-order:markers stroke fill"/><path d="m108.07 96.116 3.7432-3.1395 13.282-1.8112 14.49-4.9507 13.041-7.2449-2.898 3.7432-9.0561 6.5204-12.679 7.7279-16.18 4.8299-3.0187-2.7772z" fill="#008080" style="paint-order:markers stroke fill"/><path d="m110.73 106.02-0.12075 4.4677 3.8639 1.6905 10.505-2.415 17.267-8.5731 14.007-10.505 11.954-13.282 4.8299-7.6071-2.1735-2.898-3.5017-0.2415-9.7806 12.196-10.264 10.626-14.128 8.8146-14.973 5.7959z" fill="#291356" style="paint-order:markers stroke fill"/><path d="m77.918 157.53-1.4821-8.4694 22.656-9.528 2.1174-1.4821v-6.7755l24.138-11.01-4.6582 5.2934-19.268 15.245z" fill="#291356" style="paint-order:markers stroke fill"/><path d="m66.273 183.79 1.9056-14.821 31.972-21.385 23.503-20.538 4.8699-4.4464 2.1174-3.3878 9.7398-3.3878-10.163 12.492-18.421 17.574-25.196 21.385-13.551 10.798z" fill="#008080" style="paint-order:markers stroke fill"/></g><g fill="#0ff" stroke="#fff" stroke-linecap="round" stroke-linejoin="bevel" stroke-width="1.065"><path d="m110.94 171.58 15.484 8.7192" style="paint-order:markers stroke fill"/><path d="m110.94 203 16.536-9.6212" style="paint-order:markers stroke fill"/><path d="m127.17 170.38 16.687-8.7192" style="paint-order:markers stroke fill"/><path d="m127.78 210.07 15.785 9.0199" style="paint-order:markers stroke fill"/><path d="m165.21 214.43 12.177-11.876" style="paint-order:markers stroke fill"/><path d="m175.73 188.72-15.334-12.628" style="paint-order:markers stroke fill"/><path d="m79.069 203.76 9.0199-34.877" style="paint-order:markers stroke fill"/><path d="m94.854 163.32 20.746-3.4576" style="paint-order:markers stroke fill"/><path d="m124.47 149.79 1.804-15.033" style="paint-order:markers stroke fill"/><path d="m72.304 163.17 23.001-0.75166" style="paint-order:markers stroke fill"/><path d="m104.02 156.25 2.8563-16.987" style="paint-order:markers stroke fill"/><path d="m118.16 129.94 15.785-3.157" style="paint-order:markers stroke fill"/><path d="m89.141 151.44 6.7649-13.68" style="paint-order:markers stroke fill"/><path d="m113.49 121.82-3.608 13.981" style="paint-order:markers stroke fill"/><path d="m125.37 111.15 15.033 1.9543" style="paint-order:markers stroke fill"/><path d="m157.54 104.99 2.1046-15.183" style="paint-order:markers stroke fill"/><path d="m122.06 111.15 10.072-14.281" style="paint-order:markers stroke fill"/><path d="m143.71 89.353 18.942-4.2093" style="paint-order:markers stroke fill"/><path d="m116.8 90.105 18.942 3.7583" style="paint-order:markers stroke fill"/><path d="m121.46 74.921 19.693 6.6146" style="paint-order:markers stroke fill"/><path d="m140.86 80.634 7.9676-16.236" style="paint-order:markers stroke fill"/></g></g></svg>
