<?xml version="1.0" encoding="utf-8"?>
<!-- Generator: Adobe Illustrator 25.2.1, SVG Export Plug-In . SVG Version: 6.00 Build 0)  -->
<svg version="1.1" id="_x30_" xmlns="http://www.w3.org/2000/svg" xmlns:xlink="http://www.w3.org/1999/xlink" x="0px" y="0px"
	 viewBox="0 0 2008.8 2008.8" style="enable-background:new 0 0 2008.8 2008.8;" xml:space="preserve">
<style type="text/css">
	.st0{opacity:0.14;fill:#8B8CC4;enable-background:new    ;}
</style>
<path id="LWPOLYLINE_213_" class="st0" d="M2008.8,0v2008.8H0V0H2008.8z M1977.1,1977.1v-93.9l-28.4,28.4v37.2h-37.2l-28.4,28.4
	L1977.1,1977.1L1977.1,1977.1z M1977.1,1852.5v-840l-28.4,28.4v411.7h-51.1l-13.7,13.7l46.7,46.7l-46.7,46.7l13.7,13.7h51.1v250.8
	L1977.1,1852.5z M1977.1,996.3v-840l-28.4,28.4v250.8h-51.1l-13.7,13.7l46.7,46.7l-46.7,46.7l13.7,13.7h51.1v411.6L1977.1,996.3z
	 M1977.1,125.6V31.7h-93.9l28.4,28.4h37.2v37.2L1977.1,125.6z M1917.1,171.5l23.3-23.3l-23.3-23.3V91.8H1884l-23.3-23.3l-23.3,23.3
	h-33v33.1l-23.4,23.3l23.4,23.3v33h33l23.3,23.4l23.3-23.4h33.1V171.5z M1917.1,1027.7l23.3-23.3l-23.3-23.3V948H1884l-23.3-23.3
	l-23.3,23.3h-33v33.1l-23.4,23.3l23.4,23.3v33.1h33l23.3,23.3l23.3-23.3h33.1V1027.7z M1917.1,1884l23.3-23.3l-23.3-23.3v-33H1884
	l-23.3-23.4l-23.3,23.4h-33v33l-23.4,23.3l23.4,23.3v33.1h33l23.3,23.3l23.3-23.3h33.1V1884z M1917.1,1772.5v-48l-34,33.9l14.1,14.1
	H1917.1z M1917.1,1679.7v-73.3H1884l-23.3-23.4l-23.3,23.4h-33v73.3l56.4,56.4L1917.1,1679.7z M1917.1,1419.5v-83.8l-56.4-56.4
	l-56.4,56.4v83.8h33l23.3,23.3l23.3-23.3H1917.1z M1917.1,1290.9v-105.5l-56.4-56.4l-56.4,56.4v105.5l56.4-56.4L1917.1,1290.9z
	 M1917.1,1140.5v-48h-19.9l-14.1,14.1L1917.1,1140.5z M1917.1,916.3v-48l-34,33.9l14.1,14.1H1917.1z M1917.1,823.4V717.9l-56.4,56.4
	l-56.4-56.4v105.5l56.4,56.4L1917.1,823.4z M1917.1,673.1v-83.8H1884l-23.3-23.3l-23.3,23.3h-33v83.8l56.4,56.4L1917.1,673.1z
	 M1917.1,402.4v-73.3l-56.4-56.4l-56.4,56.4v73.3h33l23.3,23.4l23.3-23.4L1917.1,402.4L1917.1,402.4z M1917.1,284.3v-48h-19.9
	l-14.1,14.1L1917.1,284.3z M1861.6,1537.3l24.3-24.3l-24.3-24.3l-24.3,24.3L1861.6,1537.3z M1861.6,520.1l24.3-24.3l-24.3-24.3
	l-24.3,24.3L1861.6,520.1z M1824.2,60l28.4-28.4h-840L1041,60h411.7v51.1l13.7,13.7l46.7-46.7l46.7,46.7l13.7-13.7V60H1824.2z
	 M1012.5,1977.1h840l-28.4-28.4h-250.8v-51.1l-13.7-13.7l-46.7,46.7l-46.7-46.7l-13.7,13.7v51.1h-411.6L1012.5,1977.1z
	 M1804.3,284.3l33.9-33.9l-14.1-14.1h-19.9L1804.3,284.3L1804.3,284.3z M1838.2,448.2l-12.7-12.8h-53v-74.6l-74.6,74.6v131.4
	l74.6,74.6v-85.1h53l12.7-12.7l-47.6-47.6L1838.2,448.2z M1824.2,916.3l14.1-14.1l-33.9-33.9v48H1824.2z M1804.3,1140.5l33.9-33.9
	l-14.1-14.1h-19.9L1804.3,1140.5L1804.3,1140.5z M1790.6,1513l47.6-47.6l-12.7-12.7h-53v-85.1l-74.6,74.6v131.4l74.6,74.6v-74.6h53
	l12.7-12.8L1790.6,1513z M1824.2,1772.5l14.1-14.1l-33.9-33.9v48H1824.2z M1772.5,1917.1v-19.9l-14.1-14.1l-33.9,34H1772.5z
	 M1772.5,1824.2v-19.9h-48l33.9,33.9L1772.5,1824.2z M1772.5,1772.5v-79.7l-74.6-74.6v79.8h-79.8l74.6,74.6h79.8V1772.5z
	 M1772.5,1322.6v-105.5l-31.4,31.4l-49.9-20.7l30.5,73.7L1648,1332l49.9,20.7v44.4L1772.5,1322.6z M1772.5,1172.3v-79.8h-79.7
	l-40.7,40.7l22,53.2l59.6,24.7L1772.5,1172.3z M1772.5,1060.8v-19.9l-14.1-14.1l-33.9,34H1772.5z M1772.5,967.9V948h-48l33.9,34
	L1772.5,967.9z M1772.5,916.3v-79.8l-38.9-38.9l-59.6,24.7l-22,53.2l40.7,40.7L1772.5,916.3L1772.5,916.3z M1772.5,791.7V686.2
	l-74.6-74.6V656l-49.9,20.7l73.7,30.5l-30.5,73.7l49.9-20.7L1772.5,791.7z M1772.5,316v-79.7h-79.7l-74.6,74.6h79.8v79.8L1772.5,316
	z M1772.5,204.5v-19.9l-14.1-14.1l-33.9,33.9h48V204.5z M1772.5,111.7V91.8h-48l33.9,34L1772.5,111.7z M1736.1,148.2l-56.4-56.4
	h-73.3v33.1l-23.4,23.3l23.4,23.3v33h73.3L1736.1,148.2z M1736.1,1004.4l-56.4-56.4h-57.6l-23.4,56.4l23.4,56.4h57.6L1736.1,1004.4z
	 M1679.7,1917.1l56.4-56.4l-56.4-56.4h-73.3v33l-23.4,23.3l23.4,23.3v33.1L1679.7,1917.1L1679.7,1917.1z M1649.8,798.1l30.5-73.7
	l-73.7-30.5l-53.2,22.1v61l43.2,43.1L1649.8,798.1z M1680.4,1284.4l-30.5-73.7l-53.2-22l-43.2,43.1v61l53.2,22.1L1680.4,1284.4z
	 M1666.2,1666.2v-79.7l-56.4-56.4l-23.3,23.3h-33.1v33.1l-23.3,23.3l56.4,56.4L1666.2,1666.2L1666.2,1666.2z M1666.2,1541.7v-68
	l-33.9,34L1666.2,1541.7z M1666.2,1428.9v-55l-59.5-24.7l-53.2,22.1v57.6l56.4,56.4L1666.2,1428.9z M1666.2,634.9v-55l-56.4-56.4
	l-56.4,56.4v57.6l53.2,22.1L1666.2,634.9z M1666.2,535.1v-68l-33.9,34L1666.2,535.1z M1666.2,422.3v-79.7h-79.7l-56.4,56.4
	l23.3,23.3v33.1h33.1l23.3,23.3L1666.2,422.3z M1573.4,310.8l74.6-74.6h-74.6v-53l-12.8-12.7l-47.6,47.6l-47.6-47.6l-12.7,12.7v53
	h-85.1l74.6,74.6L1573.4,310.8L1573.4,310.8z M1614.7,1125.8l33.3-33.3h-47.1l-19.3-46.7l-19.3,46.7h-114.9l106.2,44v50.5l35.7-35.7
	l43.5,18L1614.7,1125.8z M1600.9,916.3h47.1l-33.3-33.3l18-43.5l-43.5,18l-35.7-35.7v50.5l-106.2,44h114.9l19.3,46.7L1600.9,916.3z
	 M1573.4,1772.5h74.6l-74.6-74.6H1442l-74.6,74.6h85.1v53l12.7,12.7l47.6-47.6l47.6,47.6l12.8-12.7v-53H1573.4z M1553.5,535.1l34-34
	l-34-34V535.1z M1553.5,1541.7l34-34l-34-34V1541.7z M1521.8,694.8l43.5-18l-43.5-18v-47.1l-33.3,33.3l-46.6-19.3l19.3,46.7
	l-81.3,81.3l106.2-44l35.7,35.7L1521.8,694.8L1521.8,694.8z M1521.8,1350.1l43.5-18l-43.5-18v-50.5l-35.7,35.7l-106.2-44l81.3,81.3
	l-19.3,46.7l46.6-19.3l33.3,33.3L1521.8,1350.1L1521.8,1350.1z M1564.4,1004.4l-23.3-56.4h-170.3l-136.1,56.4l136.1,56.4h170.3
	L1564.4,1004.4z M1507.7,1587.4l34-34h-68L1507.7,1587.4z M1507.7,376.5l34-33.9h-68L1507.7,376.5z M1473.7,455.3h68l-34-34
	L1473.7,455.3z M1473.7,1666.2h68l-34-33.9L1473.7,1666.2z M1513,1885.9l24.3-24.3l-24.3-24.3l-24.3,24.3L1513,1885.9z M1513,171.5
	l24.3-24.3l-24.3-24.3l-24.3,24.3L1513,171.5z M1521.8,1521.8V1442l-40.7-40.7l-56.4,23.4l-23.4,56.4l40.7,40.7H1521.8z
	 M1521.8,1218.7v-61l-157.3-65.2h-147.3l104.2,104.2l157.3,65.2L1521.8,1218.7z M1521.8,851.1v-61l-43.1-43.1l-157.3,65.2
	l-104.2,104.2h147.3L1521.8,851.1z M1521.8,566.8V487H1442l-40.7,40.7l23.4,56.4l56.4,23.4L1521.8,566.8z M1428.9,455.3l56.4-56.4
	l-56.4-56.4h-55l-24.7,59.5l22.1,53.2L1428.9,455.3L1428.9,455.3z M1428.9,1666.2l56.4-56.4l-56.4-56.4h-57.6l-22.1,53.2l24.7,59.5
	h55V1666.2z M1419.5,171.5l23.3-23.3l-23.3-23.3V91.8h-83.8l-56.4,56.4l56.4,56.4h83.8V171.5z M1419.5,1884l23.3-23.3l-23.3-23.3
	v-33h-83.8l-56.4,56.4l56.4,56.4h83.8V1884z M1423.7,664.8l-23.3-56.4l-56.4-23.3l-120.4,120.4l-56.4,136.1l136.1-56.4L1423.7,664.8
	z M1400.4,1400.4l23.3-56.4l-120.4-120.4l-136.1-56.4l56.4,136.1l120.4,120.4L1400.4,1400.4z M1363.9,520.4l33.3-33.3h-47.1
	l-18-43.5l-18,43.5h-50.5l35.7,35.7l-44,106.2l81.3-81.3l46.7,19.3L1363.9,520.4z M1397.2,1521.8l-33.3-33.3l19.3-46.6l-46.7,19.3
	l-81.3-81.3l44,106.2l-35.7,35.7h50.5l18,43.5l18-43.5L1397.2,1521.8L1397.2,1521.8z M1322.6,1772.5l74.6-74.6h-44.4l-20.7-49.9
	l-30.5,73.7l-73.7-30.5l20.7,49.9l-31.4,31.4H1322.6z M1352.7,310.8h44.4l-74.6-74.6H1217l31.4,31.4l-20.7,49.9l73.7-30.5l30.5,73.7
	L1352.7,310.8z M1314.9,402.1l-30.5-73.7l-73.7,30.5l-22,53.2l43.1,43.2h61L1314.9,402.1z M1314.9,1606.7l-22.1-53.2h-61l-43.1,43.2
	l22,53.2l73.7,30.5L1314.9,1606.7z M1234.5,148.2l56.4-56.4h-105.5l-56.4,56.4l56.4,56.4h105.5L1234.5,148.2z M1234.5,1860.6
	l56.4-56.4h-105.5l-56.4,56.4l56.4,56.4h105.5L1234.5,1860.6z M1193.2,987.2l94.7-39.3h-102.5l-25.4,25.5L1193.2,987.2z
	 M1185.4,1060.8h102.5l-94.7-39.3l-33.3,13.8L1185.4,1060.8z M1196.7,687.5l65.2-157.3l-43.1-43.1h-61l-65.2,157.3v147.3
	L1196.7,687.5z M1261.9,1478.6l-65.2-157.3l-104.2-104.2v147.3l65.2,157.3h61L1261.9,1478.6z M1172.3,916.3l72.5-72.5l-94.7,39.3
	l-13.7,33.2H1172.3z M1150,1125.7l94.7,39.3l-72.5-72.5h-36L1150,1125.7z M1186.4,334.7l24.7-59.6l-38.9-38.9h-79.8v79.7l40.7,40.7
	L1186.4,334.7z M1211.1,1733.7l-24.7-59.6l-53.2-22l-40.7,40.7v79.7h79.8L1211.1,1733.7z M1151.3,1589.2l35.7-35.7h-50.5l-44-106.2
	v114.9l-46.7,19.3l46.7,19.3v47.1l33.3-33.3l43.5,18L1151.3,1589.2z M1136.5,455.3h50.5l-35.7-35.7l18-43.5l-43.5,18l-33.3-33.3
	v47.1l-46.7,19.3l46.7,19.3v114.9L1136.5,455.3z M1125.7,858.8l39.3-94.7l-72.5,72.5v36L1125.7,858.8z M1165,1244.7l-39.3-94.7
	l-33.2-13.7v36L1165,1244.7z M1104,1024.2l47.8-19.8l-47.8-19.8l36.6-36.6h-51.7l19.8-47.8l-47.8,19.8v-51.7l-36.6,36.6l-19.8-47.8
	l-19.8,47.8l-36.6-36.6V920l-47.8-19.8l19.8,47.8h-51.7l36.6,36.6l-47.8,19.8l47.8,19.8l-36.6,36.6h51.7l-19.8,47.8l47.8-19.8v51.7
	l36.6-36.6l19.8,47.8l19.8-47.8l36.6,36.6v-51.7l47.8,19.8l-19.8-47.8h51.7L1104,1024.2z M1106.6,125.7l33.9-34h-48v19.9
	L1106.6,125.7z M1106.6,1838.2l33.9-33.9h-48v19.9L1106.6,1838.2z M1140.5,1917.1l-33.9-34l-14.1,14.1v19.9H1140.5z M1092.5,204.5
	h48l-33.9-33.9l-14.1,14.1V204.5z M1060.8,171.5l23.3-23.3l-23.3-23.3V91.8h-33.1l-23.3-23.3l-23.3,23.3H948v33.1l-23.3,23.3
	l23.3,23.3v33h33.1l23.3,23.4l23.3-23.4h33.1L1060.8,171.5L1060.8,171.5z M1060.8,1884l23.3-23.3l-23.3-23.3v-33h-33.1l-23.3-23.4
	l-23.3,23.4H948v33l-23.3,23.3L948,1884v33.1h33.1l23.3,23.3l23.3-23.3h33.1L1060.8,1884L1060.8,1884z M1060.8,1772.5v-48l-34,33.9
	l14.1,14.1H1060.8z M1060.8,1679.7v-57.6l-56.4-23.4l-56.4,23.4v57.6l56.4,56.4L1060.8,1679.7z M1060.8,1541v-170.3l-56.4-136.1
	L948,1370.7V1541l56.4,23.3L1060.8,1541z M1060.8,1287.9v-102.5l-25.5-25.4l-13.8,33.3L1060.8,1287.9z M1060.8,823.4V720.9
	l-39.3,94.7l13.8,33.3L1060.8,823.4z M1060.8,638.1V467.8l-56.4-23.3L948,467.8v170.3l56.4,136.1L1060.8,638.1z M1060.8,386.7v-57.6
	l-56.4-56.4L948,329.1v57.6l56.4,23.4L1060.8,386.7z M1060.8,284.3v-48h-19.9l-14.1,14.1L1060.8,284.3z M967.9,60l28.4-28.4h-840
	L184.7,60h250.8v51.1l13.7,13.7l46.7-46.7l46.7,46.7l13.7-13.7V60H967.9z M156.3,1977.1h840l-28.4-28.4H556.2v-51.1l-13.7-13.7
	l-46.7,46.7l-46.7-46.7l-13.7,13.7v51.1H184.6L156.3,1977.1z M987.2,815.6l-39.3-94.7v102.5l25.5,25.4L987.2,815.6z M987.2,1193.2
	l-13.8-33.3l-25.5,25.4v102.6L987.2,1193.2z M967.9,1772.5l14.1-14.1l-34-33.9v48H967.9z M948,284.3l34-33.9l-14.1-14.1H948V284.3z
	 M916.3,446.6l46.7-19.3L916.3,408v-47.1L883,394.2l-43.5-18l18,43.5l-35.7,35.7h50.5l44,106.2V446.6L916.3,446.6z M916.3,1600.9
	l46.7-19.3l-46.7-19.3v-114.9l-44,106.2h-50.5l35.7,35.7l-18,43.5l43.5-18l33.3,33.3V1600.9L916.3,1600.9z M916.3,1917.1v-19.9
	l-14.1-14.1l-33.9,34H916.3z M916.3,1824.2v-19.9h-48l33.9,33.9L916.3,1824.2z M916.3,1772.5v-79.7l-40.7-40.7l-53.2,22l-24.7,59.6
	l38.9,38.9h79.7V1772.5z M916.3,1364.4v-147.3l-104.2,104.2l-65.2,157.3l43.1,43.1h61L916.3,1364.4z M916.3,1172.3v-36l-33.2,13.7
	l-39.3,94.7L916.3,1172.3z M916.3,872.5v-36L843.8,764l39.3,94.7L916.3,872.5z M916.3,791.7V644.4l-65.2-157.3h-61l-43.2,43.1
	l65.2,157.3L916.3,791.7z M916.3,316v-79.7h-79.8l-38.9,38.9l24.7,59.6l53.2,22L916.3,316z M916.3,204.5v-19.9l-14.1-14.1
	l-33.9,33.9h48V204.5z M916.3,111.7V91.8h-48l33.9,34L916.3,111.7z M879.8,148.2l-56.4-56.4H717.9l56.4,56.4l-56.4,56.3h105.5
	L879.8,148.2z M823.4,1917.1l56.4-56.4l-56.4-56.4H717.9l56.4,56.4l-56.4,56.4H823.4z M872.5,916.3l-13.7-33.2l-94.7-39.3l72.5,72.5
	H872.5z M858.8,1125.7l13.7-33.2h-36L764,1165L858.8,1125.7z M848.9,973.5L823.5,948H720.9l94.7,39.3L848.9,973.5z M823.4,1060.8
	l25.4-25.5l-33.3-13.8l-94.7,39.3H823.4z M841.6,841.6l-56.4-136.1L664.8,585.1l-56.4,23.3l-23.3,56.4l120.4,120.4L841.6,841.6z
	 M785.2,1303.3l56.4-136.1l-136.1,56.4L585.1,1344l23.3,56.4l56.4,23.3L785.2,1303.3z M820.1,412.2l-22-53.2l-73.7-30.5l-30.5,73.6
	l22.1,53.2h61L820.1,412.2z M820.1,1596.6l-43.1-43.2h-61l-22.1,53.2l30.5,73.7l73.7-30.5L820.1,1596.6z M760.3,267.7l31.4-31.4
	H686.2l-74.6,74.6H656l20.7,49.9l30.5-73.7l73.7,30.5L760.3,267.7z M687.5,1196.7l104.2-104.2H644.4l-157.3,65.2v61l43.1,43.1
	L687.5,1196.7z M644.4,916.3h147.3L687.5,812.1l-157.3-65.2L487.1,790v61L644.4,916.3z M686.2,1772.5h105.5l-31.4-31.4l20.7-49.9
	l-73.7,30.5l-30.5-73.7l-20.7,49.9h-44.4L686.2,1772.5z M638.1,1060.8l136.1-56.4L638.1,948H467.8l-23.3,56.4l23.3,56.4H638.1z
	 M753.5,628.9l-44-106.2l35.7-35.7h-50.5l-18-43.5l-18,43.5h-47.1l33.3,33.3l-19.3,46.6l46.7-19.3L753.5,628.9z M709.5,1486
	l44-106.2l-81.3,81.3l-46.7-19.3l19.3,46.6l-33.3,33.3h47.1l18,43.5l18-43.5h50.5L709.5,1486z M729.5,148.2l-56.4-56.4h-83.8v33.1
	l-23.4,23.3l23.3,23.3v33H673L729.5,148.2z M673.1,1917.1l56.4-56.4l-56.4-56.4h-83.8v33l-23.3,23.3l23.3,23.3v33.1L673.1,1917.1
	L673.1,1917.1z M659.6,402.1l-24.7-59.5h-55l-56.4,56.3l56.4,56.4h57.6L659.6,402.1z M659.6,1606.7l-22.1-53.2h-57.6l-56.4,56.4
	l56.4,56.4h55L659.6,1606.7z M566.8,310.8l74.6-74.6h-85.1v-53l-12.7-12.7L496,218.1l-47.6-47.6l-12.8,12.7v53H361l74.6,74.6H566.8z
	 M556.2,1772.5h85.1l-74.6-74.6H435.4l-74.6,74.6h74.6v53l12.8,12.7l47.6-47.6l47.6,47.6l12.7-12.7v-53H556.2z M547.7,1336.5
	l81.3-81.3l-106.2,44l-35.7-35.7v50.5l-43.5,18l43.5,18v47.1l33.3-33.3l46.6,19.3L547.7,1336.5z M522.8,709.5l106.2,44l-81.3-81.3
	l19.3-46.7l-46.6,19.4l-33.3-33.3v47.1l-43.5,18l43.5,18v50.5L522.8,709.5z M584.2,584.2l23.4-56.4l-40.7-40.7h-79.8v79.8l40.7,40.7
	L584.2,584.2z M607.5,1481l-23.4-56.4l-56.4-23.4l-40.7,40.7v79.8h79.8L607.5,1481z M446.6,916.3h114.9l-106.2-44v-50.5l-35.7,35.7
	l-43.5-18l18,43.5l-33.3,33.3h47.1l19.3,46.7L446.6,916.3z M455.3,1136.5l106.2-44H446.6l-19.3-46.7l-19.3,46.7h-47.1l33.3,33.3
	l-18,43.5l43.5-18l35.7,35.7v-50.5H455.3z M501.1,1587.4l34-34h-68L501.1,1587.4z M501.1,376.5l34-33.9h-68L501.1,376.5z
	 M467.1,455.3h68l-34-34L467.1,455.3z M467.1,1666.2h68l-34-33.9L467.1,1666.2z M520.1,147.2l-24.3-24.3l-24.3,24.3l24.3,24.3
	L520.1,147.2z M495.8,1885.9l24.3-24.3l-24.3-24.3l-24.3,24.3L495.8,1885.9z M455.3,422.3l23.3-23.3l-56.4-56.4h-79.7v79.7
	l56.4,56.4l23.3-23.3h33.1V422.3L455.3,422.3z M422.3,1666.2l56.4-56.4l-23.3-23.3v-33.1h-33.1l-23.3-23.3l-56.4,56.4v79.7
	L422.3,1666.2L422.3,1666.2z M455.3,1541.7v-68l-34,34L455.3,1541.7z M455.3,1428.9v-57.6l-53.2-22.1l-59.5,24.7v55l56.4,56.4
	L455.3,1428.9z M455.3,1292.9v-61l-43.2-43.1l-53.2,22l-30.5,73.7l73.7,30.5L455.3,1292.9z M455.3,777v-61l-53.2-22.1l-73.7,30.5
	l30.5,73.7l53.2,22L455.3,777z M455.3,637.5v-57.6l-56.4-56.4l-56.3,56.4v55l59.5,24.7L455.3,637.5z M455.3,535.1v-68l-34,34
	L455.3,535.1z M402.4,171.5l23.4-23.3l-23.4-23.3V91.8h-73.3l-56.4,56.4l56.4,56.4h73.3L402.4,171.5L402.4,171.5z M402.4,1884
	l23.4-23.3l-23.4-23.3v-33h-73.3l-56.4,56.4l56.4,56.4h73.3L402.4,1884L402.4,1884z M410.1,1004.4L386.7,948h-57.6l-56.4,56.4
	l56.4,56.4h57.6L410.1,1004.4z M310.8,310.8h79.8L316,236.2h-79.7v79.7l74.6,74.6v-79.7H310.8z M316,1772.5l74.6-74.6h-79.8v-79.8
	l-74.6,74.6v79.7H316V1772.5z M376.5,501.1l-33.9-34v68L376.5,501.1z M376.5,1507.7l-33.9-34v68L376.5,1507.7z M287,707.3l73.7-30.5
	l-49.9-20.7v-44.4l-74.6,74.6v105.5l31.4-31.4l49.9,20.7L287,707.3z M310.8,1352.7l49.9-20.7l-73.7-30.5l30.5-73.7l-49.9,20.7
	l-31.4-31.4v105.5l74.6,74.6L310.8,1352.7L310.8,1352.7z M356.7,875.6l-22-53.2l-59.6-24.7l-38.9,38.9v79.8h79.7L356.7,875.6z
	 M334.7,1186.4l22-53.2l-40.7-40.7h-79.7v79.8l38.9,38.9L334.7,1186.4z M310.8,1573.4V1442l-74.6-74.6v85.1h-53l-12.7,12.7
	l47.6,47.6l-47.6,47.6l12.7,12.8h53v74.6L310.8,1573.4z M310.8,566.8V435.4l-74.6-74.6v74.6h-53l-12.7,12.8l47.6,47.6l-47.6,47.6
	l12.7,12.7h53v85.1L310.8,566.8z M250.3,125.7l33.9-34h-48v19.9L250.3,125.7z M250.3,982l33.9-34h-48v19.9L250.3,982z M284.3,1060.8
	l-33.9-34l-14.1,14.1v19.9H284.3z M250.3,1838.2l33.9-33.9h-48v19.9L250.3,1838.2z M284.3,1917.1l-33.9-34l-14.1,14.1v19.9H284.3z
	 M236.3,204.5h48l-33.9-33.9l-14.1,14.1L236.3,204.5L236.3,204.5z M204.5,171.5l23.4-23.3l-23.4-23.3V91.8h-33l-23.3-23.3
	l-23.3,23.3H91.8v33.1l-23.3,23.3l23.3,23.3v33h33.1l23.3,23.4l23.3-23.4h33V171.5z M204.5,1027.7l23.4-23.3l-23.4-23.3V948h-33
	l-23.3-23.3L124.9,948H91.8v33.1l-23.3,23.3l23.3,23.3v33.1h33.1l23.3,23.3l23.3-23.3h33V1027.7z M204.5,1884l23.4-23.3l-23.4-23.3
	v-33h-33l-23.3-23.4l-23.3,23.4H91.8v33l-23.3,23.3l23.3,23.3v33.1h33.1l23.3,23.3l23.3-23.3h33V1884z M204.5,1772.5v-48l-33.9,33.9
	l14.1,14.1H204.5z M204.5,1679.7v-73.3h-33l-23.3-23.4l-23.3,23.4H91.8v73.3l56.4,56.4L204.5,1679.7z M204.5,1419.5v-83.8
	l-56.4-56.4l-56.4,56.4v83.8h33.1l23.3,23.3l23.3-23.3H204.5z M204.5,1290.9v-105.5l-56.4-56.4l-56.4,56.4v105.5l56.4-56.4
	L204.5,1290.9z M204.5,1140.5v-48h-19.9l-14.1,14.1L204.5,1140.5z M204.5,916.3v-48l-33.9,33.9l14.1,14.1H204.5z M204.5,823.4V717.9
	l-56.4,56.4l-56.4-56.4v105.5l56.4,56.4L204.5,823.4z M204.5,673.1v-83.8h-33l-23.3-23.4l-23.3,23.3H91.8V673l56.4,56.4L204.5,673.1
	z M204.5,402.4v-73.3l-56.4-56.4l-56.4,56.4v73.3h33.1l23.3,23.4l23.3-23.4L204.5,402.4L204.5,402.4z M204.5,284.3v-48h-19.9
	l-14.1,14.1L204.5,284.3z M171.5,495.8l-24.3-24.3l-24.3,24.3l24.3,24.3L171.5,495.8z M147.2,1537.3l24.3-24.3l-24.3-24.3
	l-24.3,24.3L147.2,1537.3z M111.7,916.3l14.1-14.1l-34-33.9v48H111.7z M111.7,1772.5l14.1-14.1l-34-33.9v48H111.7z M91.7,284.3
	l34-33.9l-14.1-14.1H91.7V284.3z M91.7,1140.5l34-33.9l-14.1-14.1H91.7V1140.5z M97.2,60l28.4-28.4H31.7v93.9l28.4-28.4V59.9
	L97.2,60L97.2,60z M31.7,1977.1h93.9l-28.4-28.4H60v-37.2l-28.4-28.4L31.7,1977.1L31.7,1977.1z M78.1,495.8l46.7-46.7l-13.7-13.7H60
	V184.6l-28.4-28.4v840L60,967.8V556.2h51.1l13.7-13.7L78.1,495.8z M111.1,1573.4l13.7-13.7L78.1,1513l46.7-46.7l-13.7-13.7H60
	v-411.7l-28.4-28.4v840l28.4-28.4v-250.8L111.1,1573.4L111.1,1573.4z"/>
</svg>
